<?xml version="1.0" encoding="iso-8859-1"?>
<!-- Generator: Adobe Illustrator 18.1.1, SVG Export Plug-In . SVG Version: 6.00 Build 0)  -->
<svg version="1.1" id="Capa_1" xmlns="http://www.w3.org/2000/svg" xmlns:xlink="http://www.w3.org/1999/xlink" x="0px" y="0px"
	 viewBox="0 0 25.799 25.799" style="enable-background:new 0 0 25.799 25.799;" xml:space="preserve">
<g>
	<path style="fill:#030104;" d="M9.271,5.611c-0.418,0.08-0.854-0.347-0.975-0.953c-0.12-0.608,0.121-1.163,0.54-1.24
		C9.255,3.336,9.69,3.764,9.811,4.37C9.933,4.977,9.688,5.53,9.271,5.611z M8.421,5.938c0.011-0.502-0.26-0.916-0.606-0.924
		C7.468,5.007,7.179,5.405,7.168,5.909c-0.012,0.5,0.258,0.914,0.605,0.921C8.117,6.839,8.408,6.44,8.421,5.938z M11.846,3.457
		c-0.001-0.777-0.425-1.407-0.948-1.406c-0.524-0.001-0.95,0.63-0.95,1.407c0,0.775,0.424,1.406,0.949,1.407
		C11.42,4.864,11.846,4.233,11.846,3.457z M6.987,11.449c-0.153,4.592,2.956,6.001,2.956,10.707c0,1.729,1.154,3.643,3.156,3.643
		c2.938,0,3.645-1.597,3.705-3.408c0.113-3.37-3.08-3.753-3.08-6.722c0-3.715,4.094-3.688,4.094-7.062
		c0-2.329-2.031-2.595-3.11-2.595C12.691,6.013,7.141,6.858,6.987,11.449z M18.774,2.668c0.206-1.324-0.347-2.514-1.235-2.654
		s-1.775,0.82-1.982,2.145c-0.205,1.323,0.347,2.513,1.236,2.653C17.682,4.953,18.567,3.993,18.774,2.668z M14.778,2.883
		c0.089-0.935-0.357-1.742-1.003-1.805s-1.243,0.645-1.334,1.581c-0.092,0.936,0.356,1.742,1.002,1.805
		C14.088,4.525,14.685,3.818,14.778,2.883z"/>
</g>
<g>
</g>
<g>
</g>
<g>
</g>
<g>
</g>
<g>
</g>
<g>
</g>
<g>
</g>
<g>
</g>
<g>
</g>
<g>
</g>
<g>
</g>
<g>
</g>
<g>
</g>
<g>
</g>
<g>
</g>
</svg>
